<svg xmlns="http://www.w3.org/2000/svg" width="1024" height="1024" viewBox="0 0 1024 1024"><defs><linearGradient id="bg" x1="0" x2="1" y1="0" y2="1"><stop offset="0" stop-color="#8FE3C8"/><stop offset=".55" stop-color="#7CC8F0"/><stop offset="1" stop-color="#A6A8F0"/></linearGradient></defs><rect width="1024" height="1024" fill="url(#bg)"/><circle cx="900" cy="120" r="300" fill="#FFF" opacity=".16"/><circle cx="110" cy="960" r="250" fill="#FFF" opacity=".14"/><g transform="translate(512,430) scale(2.05) translate(-131,-131)"><circle cx="131" cy="131" r="118" fill="#FFF"/><circle cx="131" cy="131" r="96" fill="none" stroke="#5B6BA8" stroke-width="14"/><path fill="#FFD479" d="M131 20 q22 0 22 16 h-44 q0-16 22-16z"/><path stroke="#5B6BA8" stroke-linecap="round" stroke-width="15" d="M131 131 L168 162"/><path stroke="#F2789F" stroke-linecap="round" stroke-width="15" d="M131 131 L96 174"/><circle cx="86" cy="120" r="12" fill="#F9B4C8" opacity=".85"/><circle cx="176" cy="120" r="12" fill="#F9B4C8" opacity=".85"/><circle cx="104" cy="100" r="10" fill="#3E4B78"/><circle cx="158" cy="100" r="10" fill="#3E4B78"/><path fill="none" stroke="#3E4B78" stroke-linecap="round" stroke-width="7" d="M118 109 q13 14 26 0"/><circle cx="131" cy="131" r="11" fill="#5B6BA8"/></g><text x="512" y="880" fill="#FFF" font-family="Arial Rounded MT Bold" font-size="150" text-anchor="middle">Monitor</text><g fill="#FFF"><path d="M886 632 l18 50 50 18 -50 18 -18 50 -18 -50 -50 -18 50 -18z" opacity=".95"/><path d="M170 620 l12 34 34 12 -34 12 -12 34 -12 -34 -34 -12 34 -12z" opacity=".8"/></g></svg>